<?xml version="1.0" standalone="no"?>
<!DOCTYPE svg PUBLIC "-//W3C//DTD SVG 20010904//EN"
 "http://www.w3.org/TR/2001/REC-SVG-20010904/DTD/svg10.dtd">
<svg version="1.0" xmlns="http://www.w3.org/2000/svg"
 width="900.000000pt" height="600.000000pt" viewBox="0 0 900.000000 600.000000"
 preserveAspectRatio="xMidYMid meet">

<g transform="translate(0.000000,600.000000) scale(0.100000,-0.100000)"
fill="#000000" stroke="none">
<path d="M4285 5563 c-22 -8 -62 -18 -90 -22 -37 -4 -50 -10 -50 -23 0 -9 -21
-35 -48 -58 -26 -23 -50 -52 -53 -65 -3 -13 -14 -31 -25 -41 -25 -22 -24 -33
1 -27 28 7 25 -11 -5 -31 -27 -18 -34 -39 -10 -30 24 10 19 -39 -6 -54 -28
-18 -49 -72 -49 -125 0 -40 -32 -109 -60 -127 -4 -3 -11 -21 -15 -40 -4 -19
-20 -62 -36 -95 -33 -68 -35 -83 -14 -91 19 -8 19 -53 0 -81 -8 -12 -20 -43
-25 -70 -6 -26 -13 -61 -16 -76 -5 -23 -3 -29 13 -33 18 -5 21 -16 25 -80 4
-61 12 -87 43 -147 20 -39 52 -92 71 -116 34 -44 34 -44 28 -130 -7 -100 8
-160 44 -176 15 -7 22 -18 22 -39 0 -16 11 -44 25 -62 31 -40 31 -44 1 -44
-37 0 -41 -37 -7 -70 l28 -28 -50 -84 c-45 -75 -127 -239 -127 -253 0 -4 -12
-31 -26 -60 -27 -59 -30 -125 -5 -133 10 -3 12 2 8 20 -9 36 10 98 31 98 10 1
35 29 59 68 43 69 42 95 -1 45 -17 -18 -25 -23 -25 -13 0 45 62 77 95 49 8 -6
32 -49 54 -95 24 -53 45 -84 54 -84 25 0 19 23 -26 102 -58 102 -76 120 -114
116 l-32 -4 39 62 c22 34 39 66 39 71 0 6 15 33 33 59 19 27 38 62 44 79 8 25
15 29 45 30 34 2 36 0 27 -23 -5 -13 -6 -52 -3 -86 4 -35 2 -78 -5 -101 -28
-101 -21 -304 9 -255 7 12 17 7 50 -25 22 -22 54 -64 71 -93 28 -50 29 -58 31
-181 1 -128 1 -130 -34 -203 -41 -86 -64 -218 -74 -425 -5 -107 -3 -137 9
-162 24 -49 22 -370 -4 -476 -13 -57 -19 -116 -19 -205 0 -108 4 -135 25 -195
13 -38 25 -86 25 -105 1 -56 35 -165 62 -200 l26 -33 -29 -86 c-17 -47 -28
-97 -26 -111 2 -22 6 -17 30 30 15 30 48 109 73 175 45 116 47 125 55 265 12
229 31 372 54 420 23 47 61 235 90 450 9 63 20 232 25 375 12 345 23 416 90
558 31 64 43 79 118 146 28 24 34 37 35 75 1 30 -3 50 -11 55 -17 11 -12 67 6
63 7 -1 39 19 70 44 31 26 67 51 79 57 27 12 73 1 73 -18 0 -8 23 -40 50 -70
28 -30 50 -62 50 -71 0 -26 44 -114 55 -111 22 7 46 72 39 107 -3 19 -9 80
-13 135 -5 79 -9 100 -21 100 -22 0 -27 -173 -6 -213 14 -28 12 -77 -4 -67 -4
2 -13 31 -20 64 -10 50 -21 68 -64 114 -41 43 -60 55 -94 61 -50 8 -83 -7
-156 -68 -61 -50 -49 -21 25 60 27 30 49 61 49 70 0 8 16 49 36 90 23 46 39
96 43 132 7 62 6 62 36 -23 7 -19 8 -19 14 -2 6 18 7 18 22 0 8 -10 23 -30 32
-45 10 -16 22 -28 29 -28 6 0 28 -16 49 -35 36 -33 69 -45 69 -27 0 10 -56 63
-98 91 l-33 23 32 24 c41 30 49 42 49 77 0 39 -15 64 -45 71 -24 6 -25 10 -25
74 0 44 5 75 15 88 16 21 20 48 6 39 -5 -3 -12 -1 -15 4 -3 5 16 33 44 62 48
53 59 74 41 81 -14 5 -16 147 -2 210 9 41 9 72 2 112 -8 44 -7 62 6 96 l17 42
-45 43 c-27 26 -50 40 -59 37 -13 -5 -13 -3 -1 11 7 9 22 17 32 17 23 0 24 18
2 42 -14 16 -14 22 -3 43 12 22 11 27 -6 46 -10 12 -33 28 -51 35 -41 18 -48
31 -32 60 11 21 10 29 -4 53 -9 16 -17 43 -17 60 0 20 -5 31 -14 31 -15 0 -30
58 -21 82 4 10 -7 20 -34 33 -36 16 -63 45 -41 45 7 0 40 55 40 67 0 3 -21 3
-47 1 -42 -3 -48 -1 -52 20 -15 59 -189 178 -210 143 -5 -8 -16 -5 -36 11 -20
15 -46 23 -87 26 -32 3 -58 9 -58 14 0 6 -18 8 -45 4 -25 -3 -66 -9 -91 -12
-28 -4 -50 -2 -57 5 -15 15 -44 13 -92 -6z m634 -792 c-5 -22 -10 -67 -11
-101 -3 -52 0 -64 18 -78 32 -25 36 -51 19 -115 -18 -68 -18 -70 -6 -63 5 3 6
-24 3 -61 -4 -52 -10 -71 -26 -84 -19 -15 -19 -20 -9 -51 9 -22 10 -50 5 -84
-9 -54 -35 -103 -47 -85 -3 6 -15 11 -25 11 -11 0 -27 11 -36 25 -9 14 -24 25
-33 23 -9 -1 -25 3 -36 8 -33 18 -152 16 -170 -2 -14 -14 -16 -14 -21 1 -5 13
-14 15 -43 10 -20 -4 -41 -11 -47 -16 -7 -5 -16 -9 -20 -8 -21 5 -64 -15 -89
-41 -16 -16 -32 -27 -36 -25 -12 8 -48 -44 -66 -97 -10 -26 -20 -48 -23 -48
-15 1 -42 31 -55 63 -8 20 -19 38 -24 41 -5 4 -7 22 -4 40 3 22 -1 46 -11 67
-9 17 -16 38 -16 44 0 7 -6 18 -14 25 -8 6 -13 17 -10 24 3 7 0 25 -6 41 -9
25 -9 26 5 15 21 -18 19 -3 -5 27 -11 14 -20 22 -20 17 0 -5 -7 3 -14 18 -17
32 -10 94 23 222 21 78 21 78 1 103 -26 33 -26 63 -1 63 11 0 26 -7 35 -15 14
-14 23 -10 96 40 l80 55 0 -36 c0 -42 12 -68 53 -111 l31 -33 -30 0 c-16 0
-55 9 -85 20 -31 10 -65 17 -77 13 -25 -6 -47 -62 -37 -94 l7 -21 22 21 c19
18 30 20 76 14 l53 -6 -49 -24 c-58 -28 -91 -57 -75 -67 6 -4 11 -3 11 3 0 9
60 51 74 51 3 0 6 -9 6 -19 0 -40 56 -36 66 5 5 18 13 24 33 24 23 1 24 2 8
11 -9 6 -26 8 -36 4 -11 -3 -22 -1 -26 5 -3 5 0 10 7 10 25 0 88 68 88 95 l0
25 40 -20 c38 -20 40 -20 57 -1 10 10 28 24 41 30 15 8 22 21 22 40 0 15 2 30
5 33 3 3 26 -6 52 -18 38 -20 62 -24 127 -24 l81 1 45 48 c25 27 48 49 51 50
4 0 3 -17 -2 -38z m-141 -798 c15 -11 27 -28 27 -38 0 -15 -14 -18 -127 -21
-154 -4 -234 -17 -295 -50 -25 -13 -47 -23 -49 -22 -4 5 42 108 53 119 6 6 17
12 24 13 8 2 21 6 29 9 21 9 107 14 218 12 76 -1 97 -5 120 -22z m249 -101
c17 -187 18 -175 -20 -244 -19 -34 -40 -81 -47 -103 -7 -22 -31 -60 -55 -85
-46 -48 -75 -119 -75 -181 0 -38 14 -60 23 -37 3 7 6 -3 6 -22 1 -30 -7 -42
-64 -95 -48 -45 -73 -78 -99 -135 -59 -125 -75 -227 -86 -540 -5 -151 -16
-329 -24 -395 -20 -154 -60 -357 -81 -415 -10 -25 -21 -61 -26 -80 -14 -54
-39 -303 -39 -384 0 -73 -19 -166 -43 -213 l-14 -25 -17 27 c-18 27 -42 112
-76 270 -27 120 -27 294 -1 407 15 63 21 128 23 276 3 180 2 195 -16 207 -17
13 -18 24 -12 152 10 203 31 324 71 413 38 83 53 153 37 172 -5 7 -12 47 -15
88 -3 41 -7 89 -9 106 -6 48 -55 121 -108 162 -53 40 -61 60 -31 79 30 19 38
67 33 195 -3 82 -8 118 -17 120 -19 5 11 98 31 98 9 0 18 -9 21 -19 3 -12 28
-30 61 -46 32 -14 65 -30 74 -35 11 -6 20 -6 24 2 5 7 11 3 17 -13 6 -15 11
-19 14 -11 4 10 8 10 19 1 21 -18 149 -15 178 5 14 9 33 16 43 16 41 0 119 49
158 99 21 28 45 53 52 55 7 3 13 13 13 22 0 24 61 147 68 139 4 -4 8 -19 9
-33z m-806 -539 c-8 -14 -10 -10 -11 24 0 61 14 89 18 36 2 -24 -1 -51 -7 -60z"/>
<path d="M4729 4670 c-15 -4 -42 -18 -60 -31 -19 -13 -36 -25 -38 -27 -3 -1 2
-10 11 -18 15 -15 21 -15 72 1 52 16 81 16 134 0 31 -10 29 15 -4 54 -27 32
-59 38 -115 21z"/>
<path d="M4664 4565 c-17 -8 -34 -21 -37 -30 -6 -14 -3 -14 24 1 30 15 31 15
24 -5 -9 -29 42 -42 62 -15 7 10 11 24 9 31 -7 18 5 16 33 -4 18 -12 23 -13
19 -2 -12 36 -80 48 -134 24z"/>
<path d="M4455 4458 c4 -23 1 -38 -6 -40 -6 -2 -13 -23 -14 -46 -2 -27 -14
-61 -34 -93 -34 -55 -39 -94 -16 -125 13 -18 14 -16 15 24 0 29 8 55 26 82 32
48 54 177 35 212 -10 21 -11 19 -6 -14z"/>
<path d="M4560 4368 c0 -63 3 -76 14 -72 17 6 71 -79 61 -96 -3 -5 -19 -10
-34 -10 -28 0 -60 -24 -48 -36 11 -11 107 27 107 42 0 18 -26 71 -51 103 -12
14 -19 40 -19 65 0 23 -7 51 -15 62 -13 17 -14 12 -15 -58z"/>
<path d="M4500 4282 c0 -4 9 -8 20 -8 11 0 20 4 20 8 0 4 -9 8 -20 8 -11 0
-20 -4 -20 -8z"/>
<path d="M4430 4155 c14 -8 34 -14 45 -14 14 0 10 4 -14 14 -43 19 -64 19 -31
0z"/>
<path d="M4530 3973 c-66 -6 -140 -24 -140 -35 0 -7 13 -8 38 -4 20 4 85 13
144 20 59 7 111 15 114 19 7 7 -86 7 -156 0z"/>
<path d="M4818 3540 c-64 -86 -140 -280 -110 -280 6 0 14 10 17 23 12 40 78
181 102 220 34 54 27 84 -9 37z"/>
<path d="M4400 3527 c0 -25 42 -164 69 -227 16 -36 32 -74 36 -85 7 -17 9 -17
12 -4 2 9 -12 54 -31 101 -19 46 -42 117 -51 156 -9 40 -21 72 -26 72 -5 0 -9
-6 -9 -13z"/>
<path d="M5330 3545 c0 -6 28 -47 61 -90 l61 -80 -7 -140 c-5 -118 -12 -158
-41 -255 -18 -63 -44 -150 -56 -192 -20 -68 -25 -77 -50 -82 -23 -5 -28 -11
-28 -35 0 -16 5 -33 10 -36 6 -4 8 -16 4 -28 -4 -12 -7 -65 -5 -117 2 -86 5
-100 31 -143 42 -67 40 -76 -12 -66 -68 13 -114 10 -148 -8 -30 -17 -32 -17
-45 0 -14 20 -33 263 -20 275 3 4 42 7 86 6 43 0 79 3 79 7 0 28 -93 38 -162
17 l-39 -12 8 -135 c9 -156 9 -136 -4 -391 -8 -166 -7 -213 7 -308 9 -62 20
-116 26 -120 5 -5 30 -17 56 -26 29 -11 61 -33 81 -57 19 -21 39 -39 46 -39 6
0 22 -7 35 -15 22 -14 30 -13 117 17 85 29 105 33 208 33 75 0 116 4 118 11 5
15 -53 24 -147 24 -58 -1 -97 -8 -174 -34 l-99 -34 -47 44 c-42 39 -138 94
-167 94 -22 0 -28 66 -26 285 3 279 7 315 37 315 12 0 31 7 42 15 30 23 159
14 186 -13 5 -5 13 -42 18 -83 15 -124 36 -170 126 -265 42 -44 57 -54 104
-63 50 -10 176 -15 225 -9 18 3 20 -4 23 -69 2 -44 0 -73 -6 -73 -6 0 -20 -39
-33 -87 -13 -49 -31 -93 -42 -102 -28 -25 -54 -72 -62 -116 -3 -21 -20 -65
-36 -96 -40 -76 -58 -226 -34 -282 30 -72 4 -221 -42 -241 -25 -12 -23 -45 8
-139 17 -52 18 -65 7 -118 -9 -45 -16 -59 -28 -57 -12 3 -14 19 -12 100 4 102
-9 147 -47 168 -24 13 -194 13 -281 0 -54 -8 -369 -40 -392 -40 -4 0 -9 -80
-10 -178 l-3 -177 -25 -3 -25 -3 0 98 c0 66 -6 120 -19 165 -24 87 -33 91
-213 88 -76 -1 -185 1 -243 5 -79 5 -117 3 -151 -8 -26 -8 -67 -13 -92 -10
-54 4 -54 4 -67 -126 -5 -53 -15 -129 -21 -168 -11 -67 -14 -73 -35 -73 -29 0
-29 5 -10 120 19 115 29 240 18 240 -4 0 -14 -6 -20 -12 -10 -10 -17 -10 -32
0 -11 6 -37 12 -57 12 -21 0 -54 5 -73 10 -19 5 -62 15 -95 24 -97 24 -103 35
-100 209 1 116 5 149 18 168 23 33 22 43 -14 84 -41 46 -35 75 32 177 42 65
50 84 47 115 -4 40 -4 40 -29 -27 -5 -14 -19 -36 -30 -50 -16 -19 -14 -13 5
23 24 41 26 52 17 85 -6 20 -11 64 -11 98 0 39 -9 87 -26 135 -14 41 -27 106
-30 144 -7 99 -25 215 -35 215 -4 0 -5 -62 -2 -137 3 -101 11 -161 28 -223 13
-48 25 -127 28 -181 5 -90 4 -99 -21 -140 -27 -47 -37 -96 -50 -251 -7 -82
-14 -109 -45 -171 -47 -95 -67 -119 -134 -164 -54 -35 -61 -37 -167 -44 -84
-6 -123 -4 -161 6 -27 8 -68 19 -91 25 -66 16 -117 58 -203 167 -44 56 -85
104 -91 108 -5 3 -10 21 -10 40 l0 34 49 -6 49 -6 13 41 c8 30 20 44 41 53 33
13 48 36 48 72 0 14 7 56 16 94 14 65 17 70 40 65 13 -2 43 -1 67 2 l44 7 2
70 c2 74 14 116 53 189 21 39 29 45 59 46 101 5 199 17 235 30 47 17 48 19 60
179 6 76 5 82 -23 120 -25 35 -28 48 -26 105 2 36 8 97 15 137 l13 72 32 -38
c35 -42 36 -48 28 -191 -3 -47 -2 -95 0 -108 8 -34 46 -28 70 11 16 24 27 31
45 29 65 -8 83 -2 130 42 54 51 105 80 129 73 9 -3 33 -12 54 -21 31 -14 37
-14 37 -2 0 21 -62 56 -99 56 -44 0 -112 -42 -156 -96 -34 -42 -38 -43 -58
-29 -32 22 -61 18 -91 -11 l-26 -27 -1 54 c0 30 -1 88 -3 129 -3 97 8 134 38
123 55 -20 99 -9 161 41 33 27 63 54 67 60 13 19 9 157 -6 215 -30 117 -46
200 -45 232 0 19 3 28 6 22 2 -7 9 -13 15 -13 7 0 8 32 4 98 -7 96 -7 98 24
157 18 33 43 72 57 87 27 28 115 78 139 78 22 0 17 16 -11 34 -44 29 -85 20
-234 -54 -100 -49 -154 -83 -186 -115 -25 -25 -50 -45 -55 -45 -5 0 -14 -9
-20 -20 -6 -11 -15 -20 -21 -20 -6 0 -33 -10 -60 -21 -48 -21 -49 -22 -49 -65
0 -31 -6 -50 -22 -67 -36 -38 -99 -158 -105 -197 -4 -31 -3 -33 9 -18 7 10 33
54 58 99 24 45 45 77 47 73 1 -5 7 -56 12 -114 6 -58 17 -123 25 -145 7 -22
24 -74 36 -116 22 -73 22 -78 7 -125 -21 -64 -47 -214 -47 -273 0 -43 -2 -47
-38 -63 -20 -9 -52 -29 -69 -44 -44 -36 -45 -8 -2 41 35 39 34 20 4 220 -20
135 -16 374 9 445 18 52 19 60 7 60 -12 0 -29 -45 -46 -125 -28 -133 -13 -382
30 -504 13 -37 13 -42 -4 -50 -25 -14 -71 -83 -71 -108 0 -13 -8 -23 -21 -26
-16 -4 -19 -2 -13 11 14 31 16 155 3 197 -7 22 -28 55 -46 73 -31 30 -38 33
-86 29 -48 -4 -52 -6 -59 -36 -8 -30 -10 -31 -49 -25 -26 4 -49 2 -65 -7 -19
-10 -27 -10 -33 -1 -4 6 -35 23 -70 37 -46 19 -78 25 -121 24 -50 -2 -64 2
-105 29 -48 31 -144 58 -171 48 -19 -7 -43 18 -119 121 -6 8 -19 14 -30 14
-11 0 -48 0 -82 -1 l-61 0 -9 -63 c-7 -54 -11 -62 -30 -65 -18 -3 -23 -10 -23
-34 0 -43 -50 -88 -99 -88 -44 0 -61 -14 -61 -51 0 -33 53 -81 117 -105 24 -9
43 -20 43 -25 0 -4 25 -16 55 -25 30 -10 55 -23 55 -30 0 -6 7 -17 16 -25 10
-8 13 -21 9 -37 -8 -34 3 -62 26 -62 14 0 19 -7 19 -25 0 -51 39 -139 76 -174
33 -31 38 -32 49 -18 17 24 76 22 108 -3 14 -11 36 -20 49 -20 12 0 50 -12 83
-26 33 -15 80 -29 105 -33 45 -6 45 -6 44 -45 -2 -45 -15 -56 -67 -56 -21 0
-46 -4 -56 -10 -12 -6 -62 -2 -154 12 -75 12 -140 19 -144 15 -14 -15 17 -28
111 -47 106 -22 201 -26 211 -10 3 5 21 10 39 10 27 0 36 -5 45 -28 19 -45 4
-82 -38 -99 -36 -16 -96 -15 -271 3 -49 5 -62 4 -54 -5 13 -14 190 -44 214
-36 11 3 20 -1 24 -10 7 -19 26 -20 26 0 0 8 9 15 20 15 28 0 26 -41 -2 -59
-60 -38 -143 -71 -193 -77 -78 -9 -109 6 -140 71 -25 50 -26 63 -30 250 -3
109 -7 200 -10 203 -2 3 -11 -1 -19 -7 -12 -10 -14 -39 -11 -154 5 -207 11
-254 41 -314 21 -44 34 -58 73 -76 45 -22 46 -24 49 -72 5 -72 23 -88 92 -80
30 3 91 8 135 10 90 4 104 -3 153 -80 108 -171 213 -233 412 -242 148 -8 200
2 277 54 80 53 80 53 139 169 35 70 48 107 53 155 l6 64 18 -27 c16 -22 16
-30 6 -50 -7 -13 -14 -67 -15 -128 -1 -58 -5 -127 -9 -153 -7 -42 -5 -51 15
-72 21 -23 22 -26 8 -42 -22 -25 -35 -81 -47 -197 -7 -68 -7 -105 0 -118 21
-40 107 -58 280 -61 67 -2 89 -6 103 -20 11 -11 33 -17 62 -17 37 0 44 3 42
18 -6 33 47 27 95 -11 58 -48 106 -61 218 -59 119 1 175 15 216 54 30 29 37
31 122 34 84 2 91 1 91 -17 0 -15 5 -18 33 -13 48 8 85 24 91 39 3 10 31 13
103 14 102 0 413 46 591 88 18 4 25 1 29 -16 12 -48 33 -10 52 99 12 68 10 84
-28 177 l-21 53 24 24 c14 13 29 41 35 62 16 56 14 180 -3 213 -9 17 -11 32
-5 42 5 8 9 41 9 74 0 48 7 75 33 130 19 39 37 86 41 105 3 20 20 49 40 68 27
26 38 50 57 124 24 92 35 96 38 11 1 -18 12 -81 25 -140 14 -60 30 -141 36
-180 7 -45 21 -86 36 -109 14 -20 40 -66 59 -103 72 -141 83 -151 192 -188 93
-31 203 -44 203 -25 0 5 12 14 26 21 30 13 155 114 196 157 31 33 82 139 74
153 -3 5 1 31 9 59 9 28 14 65 13 83 -2 24 1 34 12 34 11 0 14 9 12 30 -2 17
-4 39 -5 50 -2 15 13 28 63 53 38 19 72 45 83 62 26 41 26 93 0 128 -17 23
-21 46 -24 139 -4 94 -8 116 -25 140 -12 15 -29 30 -39 32 -16 3 -16 0 4 -32
23 -38 39 -184 27 -248 l-6 -34 -138 -2 c-140 -3 -203 -10 -184 -22 6 -4 14
-26 18 -49 5 -34 3 -43 -10 -48 -25 -10 -47 24 -41 64 7 36 -12 44 -35 17 -20
-25 -31 -3 -18 37 11 38 6 68 -12 68 -5 0 -10 -18 -10 -39 0 -22 -4 -42 -9
-46 -14 -8 -23 31 -16 64 5 24 13 30 43 36 20 3 73 17 118 30 44 14 120 28
167 31 87 7 110 18 62 30 -31 8 -171 -12 -227 -32 -22 -7 -45 -11 -50 -8 -6 4
-34 -2 -63 -11 -29 -10 -60 -15 -69 -12 -21 8 -39 55 -31 85 10 42 174 100
342 122 108 15 171 39 162 63 0 1 7 21 16 45 13 31 16 56 11 93 -9 69 -15 81
-37 74 -11 -4 -19 -2 -19 4 0 6 12 13 28 17 48 11 72 32 72 64 0 16 -4 32 -10
35 -5 3 -10 17 -10 31 0 19 9 29 43 44 118 55 204 119 193 145 -5 14 14 25 45
25 24 0 44 40 35 74 -8 34 -41 41 -91 20 -22 -9 -53 -16 -68 -15 -15 1 -36 -3
-47 -9 -17 -9 -19 -6 -22 37 -3 47 -3 48 -40 51 -36 3 -37 5 -40 45 l-3 42
-74 -2 c-89 -3 -111 -17 -111 -75 0 -38 0 -38 -20 -18 -13 13 -32 19 -57 19
-21 -1 -44 0 -52 2 -19 5 -29 -41 -23 -101 l4 -45 -48 -18 c-51 -19 -208 -77
-209 -77 -1 0 2 30 6 68 11 95 11 221 0 260 -6 18 -35 70 -65 115 -30 45 -67
108 -82 141 -17 37 -37 64 -55 75 -37 21 -40 54 -4 45 27 -7 30 -2 15 26 -10
19 -80 44 -152 55 -22 3 -55 20 -79 41 -74 62 -113 77 -180 69 -33 -4 -62 -12
-65 -17 -11 -17 19 -27 63 -21 59 8 85 -1 149 -53 45 -37 67 -47 112 -54 94
-14 95 -15 65 -62 -58 -93 -109 -254 -143 -453 -6 -38 -18 -90 -25 -115 -7
-25 -18 -70 -24 -100 -18 -88 -16 -87 -117 -47 -49 19 -122 45 -161 58 -40 12
-73 27 -73 32 0 5 13 33 29 61 30 52 123 318 137 391 13 73 4 245 -18 317
l-20 68 -76 35 c-43 20 -94 49 -114 66 -37 29 -98 38 -98 14z m760 -377 c17
-12 30 -27 30 -33 0 -20 55 -118 110 -198 l55 -78 0 -107 c0 -59 -2 -135 -5
-169 l-5 -63 -60 -24 c-34 -13 -93 -31 -132 -39 -39 -8 -76 -18 -81 -21 -6 -3
-22 -1 -37 6 -21 9 -31 9 -46 0 -15 -10 -23 -9 -39 0 -11 7 -20 16 -20 20 0 4
13 63 30 130 16 68 36 166 44 218 9 53 25 127 37 165 23 77 78 215 85 215 3 0
18 -10 34 -22z m-2668 -83 c-7 -84 15 -208 63 -345 23 -69 46 -133 50 -142 11
-28 -60 -25 -75 3 -16 28 -71 23 -85 -8 -14 -33 -21 -29 -34 20 -35 132 -43
190 -43 316 -1 147 2 155 64 168 15 3 35 14 44 24 9 11 18 19 19 19 1 0 0 -25
-3 -55z m2293 -619 c33 -14 66 -26 73 -26 13 0 17 -20 4 -20 -5 0 -18 -9 -30
-20 -17 -16 -22 -32 -22 -68 0 -27 4 -52 10 -58 10 -10 -5 -84 -17 -84 -4 0
-17 10 -30 22 -33 30 -144 38 -196 13 -55 -26 -80 -18 -90 30 -13 62 -2 156
28 233 l27 69 92 -33 c50 -18 118 -44 151 -58z m-46 -270 c15 -8 33 -22 41
-31 7 -9 20 -13 31 -10 14 5 19 1 19 -14 0 -23 -11 -27 -112 -36 -71 -7 -122
10 -161 53 -17 19 -17 20 20 35 48 20 126 21 162 3z m1055 -21 c13 -14 28 -25
35 -25 14 0 14 -11 1 -44 -9 -26 -60 -57 -140 -86 -25 -10 -54 -21 -65 -25
-18 -8 -19 -7 -6 8 8 10 10 21 6 25 -4 4 -10 1 -12 -6 -6 -16 -55 -62 -66 -62
-4 0 -10 7 -14 16 -6 15 -3 28 23 88 6 16 4 18 -10 13 -15 -6 -17 -2 -14 26 3
29 8 33 57 49 61 20 78 17 34 -5 -32 -17 -72 -57 -56 -57 15 0 150 79 164 96
17 21 37 17 63 -11z m-3419 -115 c18 -20 18 -21 -1 -39 -10 -11 -30 -22 -44
-26 -22 -7 -23 -6 -11 9 19 23 6 32 -25 17 -41 -18 -38 -8 8 27 49 38 50 38
73 12z m-135 -89 c-8 -5 -35 -5 -60 -1 l-45 7 60 1 c37 1 54 -2 45 -7z m3121
-27 c36 -18 37 -43 3 -101 -21 -36 -30 -44 -47 -40 -79 18 -89 19 -85 6 3 -8
30 -21 61 -29 l57 -15 -4 -105 c-3 -58 -8 -124 -11 -147 l-7 -42 -33 26 c-63
50 -92 129 -110 303 -7 73 0 102 40 144 23 25 31 28 67 22 22 -4 53 -13 69
-22z m-192 -51 c-13 -38 -16 -60 -9 -67 5 -5 10 -42 10 -82 0 -73 25 -149 72
-216 l18 -26 -50 -31 c-27 -17 -50 -38 -50 -46 0 -22 14 -19 70 16 l50 31 29
-24 c16 -13 32 -37 35 -54 11 -52 36 -67 127 -72 79 -5 81 -6 94 -35 25 -60
115 -75 157 -27 26 30 75 43 65 18 -5 -14 -34 -138 -42 -180 -10 -53 -163
-204 -253 -249 -52 -26 -106 -22 -202 16 -79 31 -109 59 -164 155 -66 114 -94
186 -111 285 -9 50 -24 119 -34 155 -11 36 -25 123 -31 195 -7 71 -16 139 -20
151 -8 19 -1 24 84 58 50 20 107 47 126 61 19 13 38 24 42 25 4 0 -2 -26 -13
-57z m-3807 25 c29 -6 49 -12 43 -14 -5 -1 -22 -5 -37 -8 -36 -8 -36 -26 -2
-26 34 0 107 -36 136 -67 18 -19 20 -27 10 -48 -14 -30 -55 -42 -90 -25 -15 7
-49 15 -77 19 -54 7 -51 3 -88 123 -18 62 -1 69 105 46z m598 -20 c0 -18 -2
-20 -9 -8 -6 8 -7 18 -5 22 9 14 14 9 14 -14z m-142 -137 c31 -13 40 -33 24
-58 -5 -8 -16 -1 -35 22 -20 25 -36 35 -56 35 -31 0 -46 21 -29 38 8 8 19 6
37 -7 14 -9 41 -23 59 -30z m-42 -55 c37 -37 44 -70 18 -80 -35 -14 -84 42
-84 95 0 29 28 23 66 -15z m119 -119 c4 -41 1 -78 -11 -130 -32 -135 -57 -212
-74 -231 -20 -20 -19 -38 -6 180 2 37 0 79 -4 95 -6 22 -4 34 11 53 10 13 19
29 19 34 0 20 45 79 51 68 4 -6 10 -37 14 -69z m4008 18 c60 -7 67 -10 67 -30
0 -33 -20 -52 -92 -88 -60 -30 -67 -32 -71 -16 -4 16 -16 18 -79 18 -40 0 -85
2 -100 6 -26 7 -26 7 -7 26 10 10 17 24 15 31 -3 7 -7 25 -10 40 l-6 28 107
-4 c60 -2 138 -7 176 -11z"/>
<path d="M5436 2348 c-30 -42 -17 -88 24 -88 51 0 81 67 43 96 -26 20 -50 17
-67 -8z m40 -45 c-11 -11 -17 4 -9 23 7 18 8 18 11 1 2 -10 1 -21 -2 -24z"/>
<path d="M6131 1376 c-70 -58 -114 -107 -95 -106 12 1 179 158 173 163 -2 3
-37 -23 -78 -57z"/>
<path d="M5079 3331 c-13 -10 -50 -57 -82 -103 -50 -74 -61 -99 -87 -199 -25
-96 -30 -134 -30 -244 -1 -71 -5 -164 -11 -205 -5 -41 -14 -129 -18 -195 -5
-66 -18 -172 -30 -235 -11 -63 -25 -160 -31 -215 -5 -55 -15 -138 -21 -185 -6
-47 -8 -107 -5 -135 10 -79 -23 -397 -51 -505 -14 -52 -34 -137 -44 -187 -10
-51 -30 -114 -43 -140 -14 -27 -28 -60 -31 -74 -8 -31 12 -50 21 -22 4 10 19
45 35 79 15 33 37 101 47 150 10 49 31 136 45 194 31 122 59 419 50 522 -3 42
0 102 10 160 9 51 21 138 27 193 6 55 20 145 31 200 10 55 19 136 19 180 0 44
5 98 10 120 5 22 15 130 21 240 12 219 37 351 82 428 35 59 109 157 119 157
11 0 10 27 -1 34 -5 3 -19 -3 -32 -13z"/>
<path d="M3732 2518 c3 -7 18 -14 34 -16 52 -6 135 -33 140 -47 3 -7 -4 -40
-15 -73 -26 -75 -38 -172 -23 -172 17 0 30 31 46 107 19 87 25 103 42 103 19
0 17 34 -3 59 -32 38 -232 73 -221 39z"/>
<path d="M4137 2293 c-36 -41 -29 -113 12 -113 24 0 71 37 71 57 0 21 -39 73
-54 73 -7 0 -20 -8 -29 -17z"/>
<path d="M3551 2276 c-7 -8 -14 -30 -18 -49 -4 -28 -1 -37 22 -55 31 -25 59
-18 89 21 18 25 18 26 -3 61 -17 27 -29 36 -51 36 -15 0 -33 -6 -39 -14z m59
-45 c0 -22 -15 -35 -30 -26 -7 4 -7 13 0 26 14 25 30 25 30 0z"/>
<path d="M6670 1883 c0 -12 5 -25 10 -28 13 -8 13 15 0 35 -8 12 -10 11 -10
-7z"/>
<path d="M6531 1874 c0 -11 3 -14 6 -6 3 7 2 16 -1 19 -3 4 -6 -2 -5 -13z"/>
<path d="M6350 1836 c0 -8 4 -27 10 -41 15 -39 30 -21 17 20 -10 35 -27 48
-27 21z"/>
<path d="M4092 1603 c-17 -7 -42 -57 -42 -86 0 -25 17 -47 36 -47 19 0 84 65
84 84 0 34 -45 63 -78 49z m41 -66 c-6 -13 -21 -27 -32 -30 -30 -7 -28 36 2
56 28 19 44 6 30 -26z"/>
<path d="M2281 1554 c0 -11 3 -14 6 -6 3 7 2 16 -1 19 -3 4 -6 -2 -5 -13z"/>
<path d="M3040 1546 c0 -3 24 -28 54 -56 30 -28 66 -69 81 -90 15 -22 33 -40
40 -40 13 0 99 -88 152 -155 36 -46 54 -41 31 8 -22 46 -112 142 -146 156 -15
6 -36 27 -47 46 -25 48 -119 135 -144 135 -12 0 -21 -2 -21 -4z"/>
<path d="M2252 1430 c0 -19 2 -27 5 -17 2 9 2 25 0 35 -3 9 -5 1 -5 -18z"/>
<path d="M2230 1290 c0 -25 29 -84 37 -76 8 8 -18 96 -28 96 -5 0 -9 -9 -9
-20z"/>
<path d="M4244 885 c-10 -25 29 -80 57 -80 30 0 38 35 15 71 -18 27 -63 33
-72 9z"/>
</g>
</svg>
